/* XPM */
static char *_669561986612[] = {
/* columns rows colors chars-per-pixel */
"64 64 67 1 ",
"  c #1A75D1",
". c #1976D1",
"X c #1A76D1",
"o c #1975D2",
"O c #1A75D3",
"+ c #1876D2",
"@ c #1976D2",
"# c #1877D2",
"$ c #1977D2",
"% c #1977D3",
"& c #1A76D2",
"* c #1A77D2",
"= c #1A76D3",
"- c #1A77D3",
"; c #1C78D2",
": c #1C79D3",
"> c #1C79D5",
", c #1D7BD5",
"< c #1F7BD5",
"1 c #1D7BD6",
"2 c #237ED6",
"3 c #217ED8",
"4 c #207FD8",
"5 c #267FD8",
"6 c #2180D9",
"7 c #2280D9",
"8 c #2280DA",
"9 c #2281DA",
"0 c #2887DE",
"q c #2987DF",
"w c #3187DA",
"e c #3287DA",
"r c #2888E0",
"t c #2988E0",
"y c #3191E5",
"u c #3090E7",
"i c #3191E7",
"p c #3392E6",
"a c #3294E7",
"s c #3292E8",
"d c #3798EC",
"f c #3899EC",
"g c #399BEC",
"h c #389BED",
"j c #399BEE",
"k c #3A9BEF",
"l c #3A9CEE",
"z c #3A9CEF",
"x c #3FA1F1",
"c c #3EA2F2",
"v c #3FA2F3",
"b c #4696E0",
"n c #4D9AE4",
"m c #559EE5",
"M c #57A1E6",
"N c #5DA6E9",
"B c #40A3F2",
"V c #40A2F3",
"C c #41A4F4",
"Z c #42A4F5",
"A c #42A5F5",
"S c #62AAEA",
"D c #7ABBF1",
"F c #8CC8F8",
"G c #8FC9F9",
"H c #90CAF9",
"J c None",
/* pixels */
"J@@@@@@@@@@@@@@@@@@@@@@@@@@@@@@@@& JJJJJJJJJJJJJJJJJJJJJJJJJJJJJ",
"@@@@@@@@@@@@@@@@@@@@@@@@@@@@@@@@@@@JJJJJJJJJJJJJJJJJJJJJJJJJJJJJ",
"@@@@@@@@@@@@@@@@@@@@@@@@@@@@@@@@@@@JJJJJJJJJJJJJJJJJJJJJJJJJJJJJ",
"@@@@@@@@@@@@@-wMNNNNNNNNNNNNNNNN@@@JJJJJJJJJJJJJJJJJJJJJJJJJJJJJ",
"@@@hlq,&@@@@@@@@2bDHHHHHHHHHHHHH@@@JJJJJJJJJJJJJJJJJJJJJJJJJJJJJ",
"@@@hAAABa6-@@@@@@@@;eSFHHHHHHHHH@@@JJJJJJJJJJJJJJJJJJJJJJJJJJJJJ",
"@@@hAAAAAAZj0>@@@@@@@@@5mGHHHHHH@@@JJJJJJJJJJJJJJJJJJJJJJJJJJJJJ",
"@@@hAAAAAAAAAAxi4&@@@@@@@nHHHHHH@@@JJJJJJJJJJJJJJJJJJJJJJJJJJJJJ",
"@@@hAAAAAAAAAAAAAZgt>@@@@eHHHHHH@@@JJJJJJJJJJJJJJJJJJJJJJJJJJJJJ",
"@@@hAAAAAAAAAAAAAAAAAV1@@eHHHHHH@@@JJJJJJJJJJJJJJJJJJJJJJJJJJJJJ",
"@@@hAAAAAAAAAAAAAAAAAA6@@eHHHHHH@@@JJJJJJJJJJJJJJJJJJJJJJJJJJJJJ",
"@@@hAAAAAAAAAAAAAAAAAA6@@eHHHHHH@@@JJJJJJJJJJJJJJJJJJJJJJJJJJJJJ",
"@@@hAAAAAAAAAAAAAAAAAA6@@eHHHHHH@@@JJJJJJJJJJJJJJJJJJJJJJJJJJJJJ",
"@@@hAAAAAAAAAAAAAAAAAA6@@eHHHHHH@@@JJJJJJJJJJJJJJJJJJJJJJJJJJJJJ",
"@@@hAAAAAAAAAAAAAAAAAA6@@eHHHHHH@@@JJJJJJJJJJJJJJJJJJJJJJJJJJJJJ",
"@@@hAAAAAAAAAAAAAAAAAA6@@eHHHHHH@@@JJJJJJJJJJJJJJJJJJJJJJJJJJJJJ",
"@@@hAAAAAAAAAAAAAAAAAA6@@eHHHHHH@@@JJJJJJJJJJJJJJJJJJJJJJJJJJJJJ",
"@@@hAAAAAAAAAAAAAAAAAA6@@eHHHHHH@@@JJJJJJJJJJJJJJJJJJJJJJJJJJJJJ",
"@@@hAAAAAAAAAAAAAAAAAA6@@eHHHHHH@@@JJJJJJJJJJJJJJJJJJJJJJJJJJJJJ",
"@@@hAAAAAAAAAAAAAAAAAA6@@eHHHHHH@@@JJJJJJJJJJJJJJJJJJJJ#.JJJJJJJ",
"@@@hAAAAAAAAAAAAAAAAAA6@@eHHHHHH@@@JJJJJJJJJJJJJJJJJJJ*@@@JJJJJJ",
"@@@hAAAAAAAAAAAAAAAAAA6@@eHHHHHH@@@JJJJJJJJJJJJJJJJJJJJ@@@oJJJJJ",
"@@@hAAAAAAAAAAAAAAAAAA6@@eHHHHHH@@@JJJJJJJJJJJJJJJJJJJJX@@@JJJJJ",
"@@@hAAAAAAAAAAAAAAAAAA6@@eHHHHHH@@@JJJJJJJJJJJJJJJJJJJJJ@@@@JJJJ",
"@@@hAAAAAAAAAAAAAAAAAA6@@eHHHHHH@@@JJJJJJJJJJJJJJJJJJJJJJ@@@@JJJ",
"@@@hAAAzzAAAAAAAAAAAAA6@@eHHHHHH@@@JJJJJJJJJJJJJJJJJJJJJJJ@@@@JJ",
"@@@hAAy@@sAAAAAAAAAAAA6@@eHHHHHH@@@JJJJJJJJJJJJJJJJJJJJJJJ.@@@oJ",
"@@@hAA8@@8AAAAAAAAAAAA6@@eHHHHHH@@@JJJJJJJJ***************@@@@@J",
"@@@hAA6@@6AAAAAAAAAAAA6@@eHHHHHH@@@JJJJJJJ@@@@@@@@@@@@@@@@@@@@@@",
"@@@hAA6@@6AAAAAAAAAAAA6@@eHHHHHH@@@JJJJJJJ@@@@@@@@@@@@@@@@@@@@@@",
"@@@hAA9@@9AAAAAAAAAAAA6@@eHHHHHH@@@JJJJJJJJ%++++++++++++++@@@@@J",
"@@@hAAf%%dAAAAAAAAAAAA6@@eHHHHHH@@@JJJJJJJJJJJJJJJJJJJJJJJ@@@@JJ",
"@@@hAAACCAAAAAAAAAAAAA6@@eHHHHHH@@@JJJJJJJJJJJJJJJJJJJJJJ+@@@%JJ",
"@@@hAAAAAAAAAAAAAAAAAA6@@eHHHHHH@@@JJJJJJJJJJJJJJJJJJJJJJ@@@.JJJ",
"@@@hAAAAAAAAAAAAAAAAAA6@@eHHHHHH@@@JJJJJJJJJJJJJJJJJJJJJ$@@@JJJJ",
"@@@hAAAAAAAAAAAAAAAAAA6@@eHHHHHH@@@JJJJJJJJJJJJJJJJJJJJ&@@@JJJJJ",
"@@@hAAAAAAAAAAAAAAAAAA6@@eHHHHHH@@@JJJJJJJJJJJJJJJJJJJX@@@JJJJJJ",
"@@@hAAAAAAAAAAAAAAAAAA6@@eHHHHHH@@@JJJJJJJJJJJJJJJJJJJJ@@.JJJJJJ",
"@@@hAAAAAAAAAAAAAAAAAA6@@eHHHHHH@@@JJJJJJJJJJJJJJJJJJJJJJJJJJJJJ",
"@@@hAAAAAAAAAAAAAAAAAA6@@eHHHHHH@@@JJJJJJJJJJJJJJJJJJJJJJJJJJJJJ",
"@@@hAAAAAAAAAAAAAAAAAA6@@eHHHHHH@@@JJJJJJJJJJJJJJJJJJJJJJJJJJJJJ",
"@@@hAAAAAAAAAAAAAAAAAA6@@eHHHHHH@@@JJJJJJJJJJJJJJJJJJJJJJJJJJJJJ",
"@@@hAAAAAAAAAAAAAAAAAA6@@eHHHHHH@@@JJJJJJJJJJJJJJJJJJJJJJJJJJJJJ",
"@@@hAAAAAAAAAAAAAAAAAA6@@eHHHHHH@@@JJJJJJJJJJJJJJJJJJJJJJJJJJJJJ",
"@@@hAAAAAAAAAAAAAAAAAA6@@eHHHHHH@@@JJJJJJJJJJJJJJJJJJJJJJJJJJJJJ",
"@@@hAAAAAAAAAAAAAAAAAA6@@eHHHHHH@@@JJJJJJJJJJJJJJJJJJJJJJJJJJJJJ",
"@@@hAAAAAAAAAAAAAAAAAA6@@eHHHHHH@@@JJJJJJJJJJJJJJJJJJJJJJJJJJJJJ",
"@@@hAAAAAAAAAAAAAAAAAA6@@eHHHHHH@@@JJJJJJJJJJJJJJJJJJJJJJJJJJJJJ",
"@@@hAAAAAAAAAAAAAAAAAA6@@eHHHHHH@@@JJJJJJJJJJJJJJJJJJJJJJJJJJJJJ",
"@@@hAAAAAAAAAAAAAAAAAA6@@eHHHHHH@@@JJJJJJJJJJJJJJJJJJJJJJJJJJJJJ",
"@@@hAAAAAAAAAAAAAAAAAA6@@eHHHHHH@@@JJJJJJJJJJJJJJJJJJJJJJJJJJJJJ",
"@@@hAAAAAAAAAAAAAAAAAA6@@eHHHHHH@@@JJJJJJJJJJJJJJJJJJJJJJJJJJJJJ",
"@@@hAAAAAAAAAAAAAAAAAA6@@eHHHHHH@@@JJJJJJJJJJJJJJJJJJJJJJJJJJJJJ",
"@@@hAAAAAAAAAAAAAAAAAA6@@eHHHHHH@@@JJJJJJJJJJJJJJJJJJJJJJJJJJJJJ",
"@@@dAAAAAAAAAAAAAAAAAA6@@<bbbbbb@@@JJJJJJJJJJJJJJJJJJJJJJJJJJJJJ",
"@@@@:qhZAAAAAAAAAAAAAA6@@@@@@@@@@@@JJJJJJJJJJJJJJJJJJJJJJJJJJJJJ",
"@@@@@@@=7pvAAAAAAAAAAA6@@@@@@@@@@@@JJJJJJJJJJJJJJJJJJJJJJJJJJJJJ",
"J@@@@@@@@@@>rkAAAAAAAA6@@@*******&JJJJJJJJJJJJJJJJJJJJJJJJJJJJJJ",
"JJJJ+o@@@@@@@@&3ucAAAA6@@@JJJJJJJJJJJJJJJJJJJJJJJJJJJJJJJJJJJJJJ",
"JJJJJJJJX@@@@@@@@@:qhZ6@@@JJJJJJJJJJJJJJJJJJJJJJJJJJJJJJJJJJJJJJ",
"JJJJJJJJJJJO@@@@@@@@@X-@@@JJJJJJJJJJJJJJJJJJJJJJJJJJJJJJJJJJJJJJ",
"JJJJJJJJJJJJJJJX@@@@@@@@@@JJJJJJJJJJJJJJJJJJJJJJJJJJJJJJJJJJJJJJ",
"JJJJJJJJJJJJJJJJJJO@@@@@@+JJJJJJJJJJJJJJJJJJJJJJJJJJJJJJJJJJJJJJ",
"JJJJJJJJJJJJJJJJJJJJJJ@@&JJJJJJJJJJJJJJJJJJJJJJJJJJJJJJJJJJJJJJJ"
};
