/* XPM */
static char *result[] = {
/* columns rows colors chars-per-pixel */
"48 48 172 2 ",
"   c #2F3E9C",
".  c #363C9C",
"X  c #383B9C",
"o  c #403A9B",
"O  c #48389A",
"+  c #503599",
"@  c #16459F",
"#  c #1E439F",
"$  c #20429F",
"%  c #24419E",
"&  c #2A419F",
"*  c #0D47A1",
"=  c #0F46A1",
"-  c #0E47A1",
";  c #0E48A1",
":  c #0C4CA6",
">  c #1046A0",
",  c #1146A1",
"<  c #1944A0",
"1  c #1148A3",
"2  c #134AA5",
"3  c #1649A5",
"4  c #1A4AA7",
"5  c #1F4AA7",
"6  c #0A5CB4",
"7  c #234DAA",
"8  c #2B50AF",
"9  c #2D54B2",
"0  c #3153B3",
"q  c #3258B7",
"w  c #3657B8",
"e  c #355CBC",
"r  c #385CBC",
"t  c #464CAD",
"y  c #4A5CBE",
"u  c #684CB3",
"i  c #775FB8",
"p  c #0871C7",
"a  c #1976D2",
"s  c #1C74D1",
"d  c #1879D4",
"f  c #256FCD",
"g  c #2E6DCC",
"h  c #2F6DCD",
"j  c #3662C1",
"k  c #3566C6",
"l  c #3467C6",
"z  c #3467C7",
"x  c #2873D2",
"c  c #2974D2",
"v  c #207BD8",
"b  c #317EDB",
"n  c #5360C2",
"m  c #853CA6",
"M  c #B176BA",
"N  c #0586D9",
"B  c #1481DB",
"V  c #1683DE",
"C  c #1D85DF",
"Z  c #1C8ADE",
"A  c #208DDF",
"S  c #298EDC",
"D  c #288EDD",
"F  c #2F91DB",
"G  c #3493DA",
"H  c #3395DB",
"J  c #349ADC",
"K  c #349FDD",
"L  c #38ADDF",
"P  c #068DE7",
"I  c #0D89E3",
"U  c #098EE7",
"Y  c #0F8DE4",
"T  c #0F8EE5",
"R  c #178EE2",
"E  c #0290E9",
"W  c #0291E9",
"Q  c #0091EA",
"!  c #0093EB",
"~  c #0790E8",
"^  c #039BEC",
"/  c #0A99ED",
"(  c #1B98E4",
")  c #1D9AEE",
"_  c #3287E0",
"`  c #2D90E3",
"'  c #2B94E4",
"]  c #00A4EF",
"[  c #05A5F6",
"{  c #00AAF0",
"}  c #01ABFA",
"|  c #01ADFD",
" . c #09A9FA",
".. c #00B0F2",
"X. c #00B6F3",
"o. c #00BEF5",
"O. c #00B0FF",
"+. c #00B1FF",
"@. c #00B2FF",
"#. c #00BBFF",
"$. c #00BDFF",
"%. c #2EAFE3",
"&. c #32A6E0",
"*. c #32A7E0",
"=. c #2DB0E3",
"-. c #2ABBE7",
";. c #27B8E8",
":. c #29BCE8",
">. c #32B3E3",
",. c #31B4E3",
"<. c #5D88CB",
"1. c #598DCD",
"2. c #5492D0",
"3. c #6680C6",
"4. c #6284C8",
"5. c #6CA9DA",
"6. c #1DC6EE",
"7. c #00C1F6",
"8. c #00C0FF",
"9. c #00C3FF",
"0. c #00C7FF",
"q. c #00C9F8",
"w. c #00C9FF",
"e. c #00CCFF",
"r. c #00CEFF",
"t. c #19CCF1",
"y. c #0FD6F7",
"u. c #00D2FA",
"i. c #00D4FB",
"p. c #00D1FF",
"a. c #00D5FF",
"s. c #00D9FF",
"d. c #00DAFF",
"f. c #00DCFD",
"g. c #00DDFF",
"h. c #0BD9F9",
"j. c #0CD9F8",
"k. c #0CDAF8",
"l. c #13D1F4",
"z. c #14D0F4",
"x. c #11D4F5",
"c. c #11D4F6",
"v. c #24C0EA",
"b. c #00E0FF",
"n. c #00E3FE",
"m. c #00E3FF",
"M. c #02E2FE",
"N. c #05E1FC",
"B. c #00E4FF",
"V. c #01E4FF",
"C. c #00E5FF",
"Z. c #0BE6FF",
"A. c #2DE8FE",
"S. c #5AECFD",
"D. c #A59DCE",
"F. c #B1AFD7",
"G. c #99C0DF",
"H. c #8FDCED",
"J. c #89EFF7",
"K. c #86F0FC",
"L. c #85FBFD",
"P. c #84FFFF",
"I. c #88FFFF",
"U. c #97FDFE",
"Y. c #A9FCFD",
"T. c #B3F4FB",
"R. c #BBFAFC",
"E. c #CDF9FB",
"W. c #D5F6FA",
"Q. c #DCF7FA",
"!. c #E0F7FA",
"~. c None",
/* pixels */
"~.~.~.~.~.~.~.~.~.~.~.~.~.~.~.~.~.~.~.~.~.~.~.~.~.~.~.~.~.~.~.~.~.~.~.~.~.~.~.~.~.~.~.~.~.~.~.~.",
"~.~.~.~.~.~.~.~.~.~.~.~.~.~.~.~.~.~.~.~.~.~.~.~.~.~.~.~.~.~.~.~.~.~.~.~.~.~.~.~.~.~.~.~.~.~.~.~.",
"~.~.~.~.~.~.~.~.~.~.~.~.~.~.~.~.~.~.~.~.~.~.~.~.~.~.~.~.~.~.~.~.~.~.~.~.~.~.~.~.~.~.~.~.~.~.~.~.",
"~.~.~.~.~.~.~.~.~.~.~.~.~.~.~.~.~.~.~.~.~.~.~.~.~.~.~.~.~.~.~.~.~.~.~.~.~.~.~.~.~.~.~.~.~.~.~.~.",
"~.~.~.~.~.~.~.~.~.~.~.~.~.~.~.~.~.~.~.~.~.~.~.~.~.~.~.~.~.~.~.~.~.~.~.~.~.~.~.~.~.~.~.~.~.~.~.~.",
"~.~.~.~.~.~.~.~.~.~.~.~.~.~.M Q Q Q Q Q Q Q Q b b Q Q Q Q Q Q Q Q ~.~.~.~.~.~.~.~.~.~.~.~.~.~.~.",
"~.~.~.~.~.~.~.~.~.~.~.~.~.~.L.Q Q Q Q Q Q Q C  . .C Q Q Q Q Q Q Q s ~.~.~.~.~.~.~.~.~.~.~.~.~.~.",
"~.~.~.~.~.~.~.~.~.~.~.~.~.J.P.Q Q Q Q Q Q U ) O.O.) U Q Q Q Q Q Q a f ~.~.~.~.~.~.~.~.~.~.~.~.~.",
"~.~.~.~.~.~.~.~.~.~.~.~.H.P.P.Q Q Q Q Q Q _ O.O.O.O._ Q Q Q Q Q Q a a z ~.~.~.~.~.~.~.~.~.~.~.~.",
"~.~.~.~.~.~.~.~.~.~.~.G.P.P.P.Q Q Q Q Q b O.O.O.O.O.O.b Q Q Q Q Q a a a y ~.~.~.~.~.~.~.~.~.~.~.",
"~.~.~.~.~.~.~.~.~.~.D.P.P.P.P.Q Q Q Q C  .O.O.O.O.O.O. .C Q Q Q Q a a a a u ~.~.~.~.~.~.~.~.~.~.",
"~.~.~.~.~.~.~.~.~.~.P.P.P.P.P.Q Q Q U ) O.O.O.O.O.O.O.O.) U Q Q Q a a a a a m ~.~.~.~.~.~.~.~.~.",
"~.~.~.~.~.~.~.~.~.L.P.P.P.P.P.Q Q Q _ O.O.O.O.O.O.O.O.O.O._ Q Q Q a a a a a s ~.~.~.~.~.~.~.~.~.",
"~.~.~.~.~.~.~.~.J.P.P.P.P.P.P.Q Q b O.O.O.O.O.O.O.O.O.O.O.O.b Q Q a a a a a a f ~.~.~.~.~.~.~.~.",
"~.~.~.~.~.~.~.H.P.P.P.P.P.P.P.Q C  .O.O.O.O.O.O.O.O.O.O.O.O. .C Q a a a a a a a z ~.~.~.~.~.~.~.",
"~.~.~.~.~.~.G.I.Y.E.E.Y.I.P.P.U ) O.O.+.#.0.p.g.b.a.w.$.@.O.O.) U a a d Y [ [ Y d y ~.~.~.~.~.~.",
"~.~.~.~.~.F.R.Q.!.!.!.!.Q.R.U.` 8.e.s.B.C.C.C.C.C.C.C.C.B.d.r.9.' B / | O.O.O.O.| / n ~.~.~.~.~.",
"~.~.~.~.~.5.K.W.!.!.!.!.W.K.A.( { o.u.n.C.C.C.C.C.C.C.C.m.i.7...Z 6 N } O.O.O.O.} N t ~.~.~.~.~.",
"~.~.~.~.~.~.v.Z.S.T.T.S.Z.C.C.K Q Q Q ! ] X.q.f.f.q.X.] ! Q Q Q r * * : p ^ ^ p :   ~.~.~.~.~.~.",
"~.~.~.~.~.~.~.j.C.C.C.C.C.C.C.z.W Q Q Q Q Q Q Q Q Q Q Q Q Q Q E 5 * * * * * * * @ ~.~.~.~.~.~.~.",
"~.~.~.~.~.~.~.~.C.C.C.C.C.C.C.C.D Q Q Q Q Q Q Q Q Q Q Q Q Q Q c * * * * * * * * ~.~.~.~.~.~.~.~.",
"~.~.~.~.~.~.~.~.2.C.C.C.C.C.C.C.&.Q Q Q Q Q Q Q Q Q Q Q Q Q Q w * * * * * * * ~.~.~.~.~.~.~.~.~.",
"~.~.~.~.~.~.~.~.~.:.C.C.C.C.C.C.k.~ Q Q Q Q Q Q Q Q Q Q Q Q P 3 * * * * * * . ~.~.~.~.~.~.~.~.~.",
"~.~.~.~.~.~.~.~.~.~.j.C.C.C.C.C.C.F Q Q Q Q Q Q Q Q Q Q Q Q h * * * * * * < ~.~.~.~.~.~.~.~.~.~.",
"~.~.~.~.~.~.~.~.~.~.~.C.C.C.C.C.C.%.Q Q Q Q Q Q Q Q Q Q Q Q 0 * * * * * - ~.~.~.~.~.~.~.~.~.~.~.",
"~.~.~.~.~.~.~.~.~.~.~.1.C.C.C.C.C.N.T Q Q Q Q Q Q Q Q Q Q I 1 * * * * * ~.~.~.~.~.~.~.~.~.~.~.~.",
"~.~.~.~.~.~.~.~.~.~.~.~.-.C.C.C.C.C.H Q Q Q Q Q Q Q Q Q Q l * * * * * X ~.~.~.~.~.~.~.~.~.~.~.~.",
"~.~.~.~.~.~.~.~.~.~.~.~.~.y.C.C.C.C.;.Q Q Q Q Q Q Q Q Q Q 8 * * * * # ~.~.~.~.~.~.~.~.~.~.~.~.~.",
"~.~.~.~.~.~.~.~.~.~.~.~.~.~.V.C.C.C.V.R Q Q Q Q Q Q Q Q V ; * * * = ~.~.~.~.~.~.~.~.~.~.~.~.~.~.",
"~.~.~.~.~.~.~.~.~.~.~.~.~.~.<.C.C.C.C.J Q Q Q Q Q Q Q Q j * * * * ~.~.~.~.~.~.~.~.~.~.~.~.~.~.~.",
"~.~.~.~.~.~.~.~.~.~.~.~.~.~.~.,.C.C.C.6.Q Q Q Q Q Q Q Q 7 * * * o ~.~.~.~.~.~.~.~.~.~.~.~.~.~.~.",
"~.~.~.~.~.~.~.~.~.~.~.~.~.~.~.~.c.C.C.C.A Q Q Q Q Q Q v * * * $ ~.~.~.~.~.~.~.~.~.~.~.~.~.~.~.~.",
"~.~.~.~.~.~.~.~.~.~.~.~.~.~.~.~.~.V.C.C.K Q Q Q Q Q Q e * * > ~.~.~.~.~.~.~.~.~.~.~.~.~.~.~.~.~.",
"~.~.~.~.~.~.~.~.~.~.~.~.~.~.~.~.~.4.C.C.l.E Q Q Q Q E 4 * * ~.~.~.~.~.~.~.~.~.~.~.~.~.~.~.~.~.~.",
"~.~.~.~.~.~.~.~.~.~.~.~.~.~.~.~.~.~.>.C.C.S Q Q Q Q x * * O ~.~.~.~.~.~.~.~.~.~.~.~.~.~.~.~.~.~.",
"~.~.~.~.~.~.~.~.~.~.~.~.~.~.~.~.~.~.~.x.C.*.Q Q Q Q q * % ~.~.~.~.~.~.~.~.~.~.~.~.~.~.~.~.~.~.~.",
"~.~.~.~.~.~.~.~.~.~.~.~.~.~.~.~.~.~.~.~.M.h.~ Q Q P 2 , ~.~.~.~.~.~.~.~.~.~.~.~.~.~.~.~.~.~.~.~.",
"~.~.~.~.~.~.~.~.~.~.~.~.~.~.~.~.~.~.~.~.3.C.F Q Q g * ~.~.~.~.~.~.~.~.~.~.~.~.~.~.~.~.~.~.~.~.~.",
"~.~.~.~.~.~.~.~.~.~.~.~.~.~.~.~.~.~.~.~.~.L =.Q Q 9 + ~.~.~.~.~.~.~.~.~.~.~.~.~.~.~.~.~.~.~.~.~.",
"~.~.~.~.~.~.~.~.~.~.~.~.~.~.~.~.~.~.~.~.~.~.t.T I & ~.~.~.~.~.~.~.~.~.~.~.~.~.~.~.~.~.~.~.~.~.~.",
"~.~.~.~.~.~.~.~.~.~.~.~.~.~.~.~.~.~.~.~.~.~.~.G k ~.~.~.~.~.~.~.~.~.~.~.~.~.~.~.~.~.~.~.~.~.~.~.",
"~.~.~.~.~.~.~.~.~.~.~.~.~.~.~.~.~.~.~.~.~.~.~.i ~.~.~.~.~.~.~.~.~.~.~.~.~.~.~.~.~.~.~.~.~.~.~.~.",
"~.~.~.~.~.~.~.~.~.~.~.~.~.~.~.~.~.~.~.~.~.~.~.~.~.~.~.~.~.~.~.~.~.~.~.~.~.~.~.~.~.~.~.~.~.~.~.~.",
"~.~.~.~.~.~.~.~.~.~.~.~.~.~.~.~.~.~.~.~.~.~.~.~.~.~.~.~.~.~.~.~.~.~.~.~.~.~.~.~.~.~.~.~.~.~.~.~.",
"~.~.~.~.~.~.~.~.~.~.~.~.~.~.~.~.~.~.~.~.~.~.~.~.~.~.~.~.~.~.~.~.~.~.~.~.~.~.~.~.~.~.~.~.~.~.~.~.",
"~.~.~.~.~.~.~.~.~.~.~.~.~.~.~.~.~.~.~.~.~.~.~.~.~.~.~.~.~.~.~.~.~.~.~.~.~.~.~.~.~.~.~.~.~.~.~.~.",
"~.~.~.~.~.~.~.~.~.~.~.~.~.~.~.~.~.~.~.~.~.~.~.~.~.~.~.~.~.~.~.~.~.~.~.~.~.~.~.~.~.~.~.~.~.~.~.~.",
"~.~.~.~.~.~.~.~.~.~.~.~.~.~.~.~.~.~.~.~.~.~.~.~.~.~.~.~.~.~.~.~.~.~.~.~.~.~.~.~.~.~.~.~.~.~.~.~."
};
