/* XPM */
static char *player_front1669219048[] = {
/* columns rows colors chars-per-pixel */
"50 50 248 2 ",
"   c None",
".  c #040102",
"X  c #0C0101",
"o  c #01010B",
"O  c #0C030B",
"+  c #0D0B09",
"@  c #140200",
"#  c #1A0201",
"$  c #1D0C0A",
"%  c #160908",
"&  c #020212",
"*  c #00031B",
"=  c #060816",
"-  c #180716",
";  c #0D120F",
":  c #220400",
">  c #290A04",
",  c #2C110B",
"<  c #030725",
"1  c #000532",
"2  c #0A132A",
"3  c #211E25",
"4  c #2C2F36",
"5  c #26211B",
"6  c #762F15",
"7  c #6D331C",
"8  c #73351D",
"9  c #652B1A",
"0  c #4B362A",
"q  c #5B3528",
"w  c #4B3734",
"e  c #573A38",
"r  c #4B2E2C",
"t  c #642F24",
"y  c #6D3524",
"u  c #6B3C2E",
"i  c #63362A",
"p  c #733625",
"a  c #773B28",
"s  c #633B33",
"d  c #6C3D34",
"f  c #653D38",
"g  c #733E32",
"h  c #4E2416",
"j  c #5A433A",
"k  c #77422A",
"l  c #6B4332",
"z  c #64443B",
"x  c #67453C",
"c  c #764639",
"v  c #65422F",
"b  c #30364C",
"n  c #1B2D53",
"m  c #653E41",
"M  c #593E43",
"N  c #3D4955",
"B  c #34464F",
"V  c #374669",
"C  c #33476B",
"Z  c #4B434D",
"A  c #594847",
"S  c #524C53",
"D  c #634D4A",
"F  c #694B44",
"G  c #754C43",
"H  c #6B544B",
"J  c #775449",
"K  c #684D51",
"L  c #695455",
"P  c #7A5A57",
"I  c #7F625E",
"U  c #485577",
"Y  c #545A7B",
"T  c #50556B",
"R  c #695C68",
"E  c #775578",
"W  c #635A73",
"Q  c #596879",
"!  c #51626E",
"~  c #796767",
"^  c #64687B",
"/  c #77647C",
"(  c #77727B",
")  c #6E6F72",
"_  c #843E25",
"`  c #864938",
"'  c #984C37",
"]  c #89523B",
"[  c #97553B",
"{  c #904529",
"}  c #A54926",
"|  c #A3543B",
" . c #A9563A",
".. c #B55938",
"X. c #AE502C",
"o. c #BC623F",
"O. c #8C564C",
"+. c #8D5B4B",
"@. c #865547",
"#. c #93584C",
"$. c #985846",
"%. c #855B53",
"&. c #8B5B53",
"*. c #895C58",
"=. c #965D52",
"-. c #874E43",
";. c #A65946",
":. c #A35E51",
">. c #A74F41",
",. c #9C624D",
"<. c #93604B",
"1. c #8C645B",
"2. c #886558",
"3. c #9B655B",
"4. c #976558",
"5. c #A9664C",
"6. c #B86347",
"7. c #A66657",
"8. c #B7745C",
"9. c #B26B57",
"0. c #865C76",
"q. c #886A65",
"w. c #966862",
"e. c #947771",
"r. c #B97B63",
"t. c #A67B76",
"y. c #AB7C6D",
"u. c #CB6B4A",
"i. c #D8754C",
"p. c #C97859",
"a. c #D47A54",
"s. c #DC7B54",
"d. c #D47B5B",
"f. c #DA7C5B",
"g. c #D47556",
"h. c #CE754D",
"j. c #E37A4E",
"k. c #E27B52",
"l. c #E17D5C",
"z. c #C97C66",
"x. c #D47D62",
"c. c #D97D66",
"v. c #B8826D",
"b. c #B98676",
"n. c #A0837D",
"m. c #DC825C",
"M. c #D3825C",
"N. c #C5825F",
"B. c #E3835B",
"V. c #EA885B",
"C. c #CC8163",
"Z. c #C7856B",
"A. c #DD8362",
"S. c #D68669",
"D. c #C78A76",
"F. c #CC947C",
"G. c #C8967B",
"H. c #D2947C",
"J. c #D39674",
"K. c #DD8974",
"L. c #E48668",
"P. c #E49C76",
"I. c #ECA67C",
"U. c #36578F",
"Y. c #3C669C",
"T. c #3768A8",
"R. c #2F6BA9",
"E. c #555A86",
"W. c #5A5C9B",
"Q. c #4D5B83",
"!. c #4C638A",
"~. c #586589",
"^. c #486496",
"/. c #576A98",
"(. c #55719A",
"). c #696786",
"_. c #667388",
"`. c #666895",
"'. c #697595",
"]. c #74718C",
"[. c #4F6BAD",
"{. c #6678A6",
"}. c #6D7DB1",
"|. c #645E8E",
" X c #927093",
".X c #947AA7",
"XX c #6A8599",
"oX c #758A98",
"OX c #728A93",
"+X c #5E86B8",
"@X c #6C87A6",
"#X c #768AAC",
"$X c #6986B6",
"%X c #7892B9",
"&X c #5788C7",
"*X c #5989D2",
"=X c #5993D7",
"-X c #5A90CE",
";X c #6788C6",
":X c #6593D7",
">X c #6690CC",
",X c #77A4C3",
"<X c #958587",
"1X c #898699",
"2X c #8F848F",
"3X c #B38A83",
"4X c #B89488",
"5X c #B99993",
"6X c #A58C8C",
"7X c #8485B7",
"8X c #8C90AA",
"9X c #BAA9B1",
"0X c #BB9CA1",
"qX c #CD9581",
"wX c #C49788",
"eX c #D59D85",
"rX c #C59B92",
"tX c #D39E90",
"yX c #D7A387",
"uX c #C8A49C",
"iX c #D4A393",
"pX c #D7A697",
"aX c #D7B19E",
"sX c #E7B499",
"dX c #C6A4A3",
"fX c #D1B7B3",
"gX c #E8BBAA",
"hX c #F8C8AB",
"jX c #E8C7B9",
"kX c #F8CDB8",
"lX c #FCD5B9",
"zX c #E6C7AB",
"xX c #A0A5C4",
"cX c #DCCDC5",
"vX c #E6CDC5",
"bX c #EAD4C7",
"nX c #F5D7C8",
"mX c #FCDCD3",
"MX c #F0CFC0",
"NX c #FEE5DB",
"BX c #FFE8C8",
"VX c #FBEBE9",
"CX c #FFF8EF",
"ZX c #FFF3F1",
"AX c #FEFDFD",
"SX c #F6F5F0",
"DX c #F6EEF6",
"FX c #F7DDE0",
/* pixels */
"                                                CXNXVXZXZXAX                                        ",
"                                        w j x z q J f f j r ZX                                      ",
"                                        G v l v d i l i F G VXVX                                    ",
"                                e j l u v.v.v.Z.H.9.D.v.v.b.c q z j                                 ",
"                                l k 7 k N.Z.M.p.N.N.C.Z.Z.D.p k v 0                                 ",
"                            j v v.Z.C.N.S.M.M.m.m.L.M.h.p.C.[ 5.7.+.q v w w                         ",
"                            j q v.A.M.p.m.h.h.B.i.i.m.m.M.A.' | ' [ c l z D                         ",
"                        j J y.G.N.M.h.V.h.V.j.j.j.j.i.B.} o.h.M.J.Z.,.] q.x L M                     ",
"                        c v b.Z.M.h.m.i.k.i.j.j.j.k.i.k.X...m.x.p.Z.$.#.1.1.e A                     ",
"            A A e e s G +.,.Z.8.p.m.s.s.j.j.j.k.i.s.s.L.g.f.x.d. .:.$.7.&.2.f M # O , X             ",
"            A r f s c y -.;.z.c.m.m.s.s.g.k.k.k.k.L.k.g.g.S.p.S.>.=.$.#.@.1.l F # , @ @             ",
"        % X n.rXt.y.D.D.;.>.>.} M.h.a.g.l.k.l.g.i.g.f.f.x.A. .;.>.:.#.#.3.w.q f q.P q.~ X .         ",
"        # : 4Xy.D.D.8.x. ...6...h.m.m.B.l.l.s.l.L.d.c.L.x.S.;.' :.O.=.=.O.&.d d %.*.q.P $ %         ",
"        X # 2.<.r.K.c.c.L.u.f.l.u.L.a.m.X.X.} X.l.d.g.p. .;.| >.:.O.w.3.t d =.&.&.w.w.I # .         ",
"        # , #.5.S.g.g.u.c.g.l.l.a.m.m.a.6.......g.L.x.x.6.;.>.5.O.*.*.=.m g 3.=.#.=.*.P # %         ",
"          NXt 9 _ _ z.c.c.l.l.c...} ..} g.u.c.g.x.K.| ' ;.;.] #.=.t.t t =.-.=.=.d d m M             ",
"          CXv l y a z.x.S.C.8.p.6.} 6. .c.c.K.K.c.z.:.:.=.3.O.0.&.&.u g #.7.-.#.d m e e             ",
"            % # 4.#.a 8 z.Z.k { D.C.C.C.c.z.>.>.>.7.-.:.=.O.G t s l @.3.5.=.g i w.J , .             ",
"            + @ 2.4.p p z.z.6 6 8.z.D.D.c.z.>.9.>.:.>.:.O.O.g t q k +.7.` ` c d *.I X O             ",
"            @ @ 2.&.#.#.$.5.[ 5.` a p p :.:.$.-.:.=.d t t -.qXaXiXD.,.,.,.7.,.+.q.2.$ X             ",
"            5 X q.J 7.3.[ $.[ ' p p p p O.*.w.w.*.=.G p p 6 K.qXF.yX,.] 5.<.] 4.P q.@ .             ",
"              AX@ > J 3.qXH.5.5.qXtXb.y.m m e f r s wXqXpXqXD.z.G.G.8 k G.G.<.<.> X                 ",
"                X # 2.<.yXF.[ [ tXtXt.t.d f f q G G rXwXb.qXr.r.eXyX8 k J.G.<.2.# X                 ",
"                X X e.2.G.v.` a 3XuXfXrXJ c 4XaXgXMXwXrX&.m dXpXG.I.8 k G.G.4.2.# X                 ",
"                ; X I J aXiX7 y dX0XdXpXl c yXP.kXkX4XwXx H 9XdXtXD.g c F.b.y.H X $                 ",
"                    $ @ v h iXrX3XdXNXmX> : hXhXhXkXkXnX@ @ DXFXpXqXG.b.c c # @                     ",
"                    . $ w F aXwXrXb.VXnX> > jXnXhXMXbXbX: : mXNX3XwXpXiXv h @ @                     ",
"                      ZXj w P 2.pXeXhXkXgXNXvXnXnXvXjXnXMXjXNXjXgX5X*.2.v J CX                      ",
"                      SXZ A ~ 1.qXeXkXkXnXMXvXvXcXNXzXBXkXhXhXhXwXdX*.*.j j                         ",
"                        AXVX% # G ` iXwXnXjXmXmX5XuXjXzXlXlXb.G.G K : # CX                          ",
"                        AXAX. O K w dXrXkXgXBXsXJ.N.BXaXlXzX4XaXK K # @ ZX                          ",
"                      AX. o Z b ).( O # c ] J.P.I.I.J.sXv H + . R ).4 Z O +                         ",
"                    AXDXo & 3 V Q ! & + K x eXC.J.J.F.3XK Z * = ~.!.n V < *                         ",
"                    . 3 8XcX^ ^ U ~.U ~.W R K -.] l P L W `.E.E.^.^.(.~.8X1Xo +                     ",
"                    + . fX9XL ! Y Q.}./.!.E.Z S m b U C W.W.W.W.!.(.U ~.1X1XO X                     ",
"                A D cXcX<X) fX9X< 1 U.T.$X;X7X#X`./.;X>X;X;X[.W.2 = 1X XR ~ 6X6XA A                 ",
"                H A bXBX~ n.5X9X= 1 ^.[.&X>X;X$X^.T.-X=X*X*X[.W.* o 2X<XP  Xt.5Xz z                 ",
"                D D bXbXnXnXz D O * {.^.&X:X*X:X[.T.=X*X:X&XW.E.& + w L t.4Xb.b.e 0                 ",
"                D j   nXjXjXH x $ X ].Q.;X&X-X-XR.R.-X&X}.{.).R . . A w 5Xt.5X Xx H                 ",
"                    j H H H @ % 0 j ^ `.(.^.;X&XT.[.+X$XQ.'.R ( S S X $ w F m e                     ",
"                    D j j D @ - S B ! XXY /.#X'.Y Y 7X'.Q ^ ! _.N S o o S A e M                     ",
"                            % O OXXX@X,X~.T .X0./ ]./ _.~.XXOXoXoXOXo o                             ",
"                            - * XX,X+X$X{.`.E 0.0.0.).'.~.(.%X#XoXoX2 =                             ",
"                            - & = = Y.^.$X7X.X.XE E 1X#X@X@X~.Y 2 = & *                             ",
"                            o O $ ; _.!.;X$X7X8X|.).@X@XXX8XW ) . . + .                             ",
"                            o $ H I ) Y < 1 b V V V n C * o q.~ ) ) . .                             ",
"                            + X 2.2.~ 2X& & B 4 4 4 B B 2 O ( R ~ H , 5                             ",
"                                @ @ X X                     o + + $                                 ",
"                                . + . .                     ; o . %                                 ",
"                                                                                                    "
};
