/* XPM */
static char *player_left1669219049[] = {
/* columns rows colors chars-per-pixel */
"50 50 231 2 ",
"   c None",
".  c #050001",
"X  c #0C0101",
"o  c #0A0A06",
"O  c #02010D",
"+  c #0D070B",
"@  c #150101",
"#  c #1B0202",
"$  c #13030B",
"%  c #1B0C0D",
"&  c #180708",
"*  c #020313",
"=  c #080619",
"-  c #170914",
";  c #191118",
":  c #19110E",
">  c #240300",
",  c #230C04",
"<  c #221516",
"1  c #310500",
"2  c #000722",
"3  c #181828",
"4  c #061A2E",
"5  c #5A321D",
"6  c #5C2E16",
"7  c #672C19",
"8  c #782B15",
"9  c #66331B",
"0  c #77341B",
"q  c #6B240E",
"w  c #5D3B2D",
"e  c #573427",
"r  c #563B37",
"t  c #4D3936",
"y  c #6C3C2A",
"u  c #683726",
"i  c #743C2B",
"p  c #753623",
"a  c #6C3E33",
"s  c #623E36",
"d  c #723B38",
"f  c #622F34",
"g  c #5A4239",
"h  c #59442F",
"j  c #69422B",
"k  c #78442C",
"l  c #634534",
"z  c #6B4533",
"x  c #64433B",
"c  c #67483C",
"v  c #734233",
"b  c #73453C",
"n  c #7C4B3A",
"m  c #794737",
"M  c #182C45",
"N  c #252D47",
"B  c #3A384D",
"V  c #283D5C",
"C  c #3A3B54",
"Z  c #2C3240",
"A  c #1C3868",
"S  c #283A69",
"D  c #493943",
"F  c #3C495C",
"G  c #2F4169",
"H  c #364C72",
"J  c #5B4846",
"K  c #454659",
"L  c #664A44",
"P  c #694745",
"I  c #744C44",
"U  c #695649",
"Y  c #76554B",
"T  c #6D5D58",
"R  c #765A58",
"E  c #7C4E51",
"W  c #7D635A",
"Q  c #5E5974",
"!  c #5B556F",
"~  c #625667",
"^  c #6D686A",
"/  c #7B6466",
"(  c #66657D",
")  c #776D73",
"_  c #863A28",
"`  c #872816",
"'  c #884A35",
"]  c #9B543D",
"[  c #945236",
"{  c #8E4C36",
"}  c #AC553C",
"|  c #A3583D",
" . c #B45533",
".. c #B85A37",
"X. c #B04E29",
"o. c #AD613D",
"O. c #D36A3B",
"+. c #864A44",
"@. c #89574A",
"#. c #945A45",
"$. c #985849",
"%. c #8C5C55",
"&. c #8C5955",
"*. c #935B55",
"=. c #975D58",
"-. c #9A4E40",
";. c #A35A46",
":. c #B65E47",
">. c #89634C",
",. c #9B634C",
"<. c #85635D",
"1. c #896258",
"2. c #93615C",
"3. c #986657",
"4. c #A9634A",
"5. c #BE6B4B",
"6. c #A66858",
"7. c #B77556",
"8. c #915F62",
"9. c #876864",
"0. c #966B65",
"q. c #8E726B",
"w. c #98746B",
"e. c #806B70",
"r. c #A77B69",
"t. c #B77B68",
"y. c #A97B72",
"u. c #CB6D4C",
"i. c #C76B46",
"p. c #CD784D",
"a. c #D37B4D",
"s. c #DC7C4D",
"d. c #D97448",
"f. c #CD7552",
"g. c #CB7A55",
"h. c #C8765A",
"j. c #DC7652",
"k. c #D47B54",
"l. c #DB7B56",
"z. c #D47C5D",
"x. c #DC7B5B",
"c. c #D57556",
"v. c #C46D51",
"b. c #E1764C",
"n. c #E27C4C",
"m. c #E57849",
"M. c #E17755",
"N. c #E57D56",
"B. c #C67B64",
"V. c #D77C63",
"C. c #E07D60",
"Z. c #BB856A",
"A. c #AB8373",
"S. c #B98775",
"D. c #CC825C",
"F. c #C2845B",
"G. c #DB8257",
"H. c #EC835C",
"J. c #E38257",
"K. c #E1814F",
"L. c #CC8363",
"P. c #C3826B",
"I. c #CB836B",
"U. c #C8866B",
"Y. c #DB836B",
"T. c #D78668",
"R. c #C38B74",
"E. c #C78A77",
"W. c #CC9B7C",
"Q. c #C7957C",
"!. c #D89479",
"~. c #CC8E6E",
"^. c #E68864",
"/. c #E18F72",
"(. c #EC926E",
"). c #505F8A",
"_. c #56668E",
"`. c #5D6C97",
"'. c #746C82",
"]. c #7B7E89",
"[. c #6A7695",
"{. c #5879A7",
"}. c #4275A2",
"|. c #667CA1",
" X c #807F8F",
".X c #6D839B",
"XX c #5D88B7",
"oX c #5B82A3",
"OX c #7989A9",
"+X c #6A88B2",
"@X c #7796B5",
"#X c #7090B3",
"$X c #7698C6",
"%X c #6898C6",
"&X c #84838D",
"*X c #838592",
"=X c #94919C",
"-X c #B39289",
";X c #BDA79A",
":X c #898AA1",
">X c #8D94B0",
",X c #B89EAB",
"<X c #BFA4AD",
"1X c #C89888",
"2X c #D29D8A",
"3X c #D39885",
"4X c #D09D91",
"5X c #D6A58A",
"6X c #CAA597",
"7X c #D7A593",
"8X c #E1A697",
"9X c #E7B59A",
"0X c #D4B8AA",
"qX c #DCC1B8",
"wX c #EBC1AD",
"eX c #EAC5B5",
"rX c #F6CAB7",
"tX c #FBD1BB",
"yX c #84AACE",
"uX c #FBD5C5",
"iX c #FAD8C8",
"pX c #F5D1C8",
"aX c #FEE1D4",
"sX c #F5EAE9",
"dX c #FBF3EA",
"fX c #FEF5F2",
"gX c #FDF9F4",
"hX c #FEF5FC",
"jX c #FEFCFD",
"kX c #F6F2F5",
"lX c #E2E4E3",
/* pixels */
"                                                                                                    ",
"                                            U g r t U r P D                                         ",
"                                            e a m a P x x g                                         ",
"                                    t g c b t.E.t.B.t.t.y.A.b c t g                                 ",
"                                    h z j q /.V.T.L.^.F.!.U.6 j u c                                 ",
"                                c 5 S.Z.P./.u.x.M.s.G.a.D.D.F.~.A.S.l L                             ",
"                                h j R.U.D.z.M.H.m.N.n.H.a.a.G.5.T.R.9 u dX                          ",
"                            @ @ A.R.P.T.D.u.H.n.H.m.d.s.s.a.K.G.g.D.I.~.y x                         ",
"                            @ > E.B.h.T.z.k.G.d.m.m.n.n.K.n.s.s.n.^.a.T.p 5 dX                      ",
"                        J g L a _ 8 } } f.G.G.s.K.K.d.s.n.m.H.M.m.O.J.k.L.Z.z h                     ",
"                        r x w u _ ` :.} f.k.g.a.a.K.a.K.M.j.M.M.J.O.N.k.g.!.y w gX                  ",
"                    J g Y 1.A.Q.B.c.V.u.5. .a.k.a.a.G.p.l.x.V.N.j.H.l.c.T.7.9 s gX                  ",
"                    J e 9.3.S.P.V.V.V.u.....s.J.^.j.(.x.V.Y.h.V.V.v./.B.D.Z.m j gXsXjX              ",
"                    r Y %.n 3.] V.V.^.x.i.M.d.N.j.u.V.v.:.] _ p 8 p _ q P.R.n 0.@ : kX              ",
"                    L r @.r.' 4.L.i.^.x.N.^.b.M.N.^.V.h.4.-._ d d u p @.Z.S.0.I @ X jX              ",
"                    g e w.{ ,.[ | o.h.g.N.u.C.M.M.N.....;.-.I.B.1Xy.S.t.p d 1.0.@ X jX              ",
"                    J J U >.>.,.#.] U.I.h.f.T.G.u.G.X... . .j.z.L.~.t.U.p u 2.<.# X jX              ",
"                        U j w 9 #.6.' 4.!.h.D.i.T.z.l.c.l.^.j.c.k.D.4.6.i y 0.9.# # sX              ",
"                        h j u i #.,.] ' U.~.7.!.T.f.T.z.B.V.V.Y.D.L.[ ' p u &.E @ % hX              ",
"                        @ > 1X3X9 k k n k 0 ] [ ;.] 4.| ;.-.;.] 8 ' 0 ' 3.%.q./ @ X jX              ",
"                        > 1 3XE.v u 9 y 9 k 6.,.4.$.;.$.6.=.=.-._ _ q p #.1.W / X $ jX              ",
"                        P d 1X8X7XS.Q.A.E.2X' #.p i =.&.=.&.d +.$.;.;.$.3.Y # @ jXkXjX              ",
"                        f +.3X3X-X6XA.A.6X1X@.,.u b $.&.8.&.f d $.-.3.@.1.W X . gX                  ",
"                        E d E.4Xb Y -X6XtXuXy y 3X4Xf d 8.8.8.&.6.#.6.%.%.q.X o jX                  ",
"                        Y b 8X3XL h 0X6XeXeXj 9 1XE.i i @.*.*.3.$.=.=.I w.T . . jX                  ",
"                        L b rXpX@ % aXaXiXtXj k 7XE.5XS.m d =.@.*.&.0.w.# < dXjX                    ",
"                        L c tXuX, # aXaXeXiX6 k R.~.7X8X7 i =.0.*.9.Y 9.X X jX                      ",
"                          -XaXeXpXqXiXiXrXtXW.Q.3X9XR.W.n v I @.<.<.# @ fXgXsX                      ",
"                          ;XqXaXiXuXuXrXeXtXW.5X5XS.5X5X5 e y.<.9.T # X jX                          ",
"                            U h qXiXwXwX9XW.W.~.5XW.j z 1.q.@ @ % X gXfXgX                          ",
"                            c h tXrXiXrX5XW.2XW.Q.5Xz c 9.T & X . < fX                              ",
"                            dXgXb j z n 6 j 6X1X> # , @ @ X jXhXjXsX                                ",
"                              fXP r E d P J ,X,X- - = . : + kX                                      ",
"                              hXhXhX# - Q Q '.Q C N F K O . jX                                      ",
"                                hXhX2 * `.).`.).G G V M 4 O jX                                      ",
"                                = * [._.+X+XA A +X+X#X#XN K lX                                      ",
"                                O 2 H {.XX%XH S |.OXoX#XF Z                                         ",
"                                4 2 $X$X}.#XS B ) _.@X@XM F o &                                     ",
"                                * 4 +X{.$XOXD e w.T ].[.B B o .                                     ",
"                                = * @X|.4 * -XE.t.4X. 2 K K o :                                     ",
"                                + O >XOX* : S.B.B.S.X 3 K D ; .                                     ",
"                                . ; ( Q 3 . @.$.6.@.X = ! '.O :                                     ",
"                                @ & ~ ) * % w.0.&.e.- * :X'.O @                                     ",
"                                    ; = .X=X@ # # $  X:X* *                                         ",
"                                    $ - ].&X- & & -  X*X; $                                         ",
"                                    X $ ) ^ / R <.e.^ ^ $ @                                         ",
"                                    & @ T / W w.2.R 9./ # @                                         ",
"                                        o X @ # # # @ X dX                                          ",
"                                        o o . o o . o o                                             ",
"                                                                                                    "
};
