/* XPM */
static char *player_right1669219049[] = {
/* columns rows colors chars-per-pixel */
"50 50 236 2 ",
"   c None",
".  c #030101",
"X  c #0B0201",
"o  c #01030B",
"O  c #0C050C",
"+  c #090A0B",
"@  c #130101",
"#  c #1C0100",
"$  c #1B0904",
"%  c #170908",
"&  c #010312",
"*  c #030C13",
"=  c #0D0C14",
"-  c #06071A",
";  c #120A16",
":  c #07131A",
">  c #181616",
",  c #230300",
"<  c #2A0600",
"1  c #271E1F",
"2  c #001123",
"3  c #19143D",
"4  c #29323C",
"5  c #5C2D1B",
"6  c #682D19",
"7  c #66351D",
"8  c #7B351C",
"9  c #76351B",
"0  c #7B2818",
"q  c #57352B",
"w  c #4B3C35",
"e  c #593E36",
"r  c #462D26",
"t  c #663425",
"y  c #6C3424",
"u  c #6C3D2C",
"i  c #663A29",
"p  c #743522",
"a  c #763C24",
"s  c #743C2B",
"d  c #7B3828",
"f  c #653E32",
"g  c #6C3B34",
"h  c #6B3731",
"j  c #763C32",
"k  c #783E36",
"l  c #602F21",
"z  c #5A433B",
"x  c #584137",
"c  c #49423C",
"v  c #6A442C",
"b  c #74432C",
"n  c #654135",
"m  c #64443B",
"M  c #694639",
"N  c #724334",
"B  c #784A3A",
"V  c #1E3D52",
"C  c #253E58",
"Z  c #323A50",
"A  c #313646",
"S  c #433E4A",
"D  c #294559",
"F  c #324655",
"G  c #284565",
"H  c #5C4B42",
"J  c #5A4646",
"K  c #554C4C",
"L  c #674A44",
"P  c #724D43",
"I  c #6C524C",
"U  c #695348",
"Y  c #76564C",
"T  c #6C5A54",
"R  c #745C54",
"E  c #775C5B",
"W  c #634D50",
"Q  c #78605E",
"!  c #4C5D6E",
"~  c #655369",
"^  c #685A71",
"/  c #766969",
"(  c #777072",
")  c #706E76",
"_  c #576E76",
"`  c #853926",
"'  c #803933",
"]  c #874738",
"[  c #934B37",
"{  c #8C5437",
"}  c #965339",
"|  c #82412F",
" . c #A95539",
".. c #B35637",
"X. c #AA4E37",
"o. c #844B44",
"O. c #8D5C4D",
"+. c #895748",
"@. c #985A4A",
"#. c #885953",
"$. c #955C52",
"%. c #985B55",
"&. c #934842",
"*. c #AD5643",
"=. c #A95C46",
"-. c #B55C43",
";. c #A35E54",
":. c #99624B",
">. c #8C695C",
",. c #886258",
"<. c #9D6453",
"1. c #97665B",
"2. c #A86547",
"3. c #B7654C",
"4. c #A56656",
"5. c #BA775A",
"6. c #866A66",
"7. c #926B64",
"8. c #986961",
"9. c #89716B",
"0. c #937469",
"q. c #887777",
"w. c #907E72",
"e. c #A57A6A",
"r. c #B47C6C",
"t. c #BB7F65",
"y. c #AF756E",
"u. c #C86C49",
"i. c #D36F4C",
"p. c #CC754A",
"a. c #D27245",
"s. c #DB764C",
"d. c #DC7C4C",
"f. c #D77547",
"g. c #CB7454",
"h. c #CD735C",
"j. c #C97A5B",
"k. c #D47553",
"l. c #DB7454",
"z. c #DC7B53",
"x. c #D27B59",
"c. c #DC7C5A",
"v. c #D47A58",
"b. c #D06E51",
"n. c #E27C4B",
"m. c #E47E53",
"M. c #E27D5C",
"N. c #E57956",
"B. c #C47C63",
"V. c #CC7D63",
"C. c #C77C68",
"Z. c #D67D61",
"A. c #DA7D65",
"S. c #C87F70",
"D. c #E67F60",
"F. c #BB846D",
"G. c #B98775",
"H. c #A88879",
"J. c #DB835D",
"K. c #D4825C",
"L. c #C5805F",
"P. c #E4825B",
"I. c #E98658",
"U. c #E7834F",
"Y. c #CD8365",
"T. c #C6866B",
"R. c #D38462",
"E. c #DA8366",
"W. c #D6876A",
"Q. c #CD8B76",
"!. c #C38778",
"~. c #D48A73",
"^. c #C89678",
"/. c #D39C7B",
"(. c #C1916B",
"). c #E48663",
"_. c #E78767",
"`. c #E68D76",
"'. c #E4997A",
"]. c #595B85",
"[. c #546C97",
"{. c #637988",
"}. c #6B758E",
"|. c #5673A9",
" X c #6879A4",
".X c #63879C",
"XX c #708993",
"oX c #5C8CA7",
"OX c #678BAA",
"+X c #6F92A6",
"@X c #768BB8",
"#X c #7496B5",
"$X c #7093AD",
"%X c #7AA1B2",
"&X c #6C96C8",
"*X c #898688",
"=X c #938B8C",
"-X c #969195",
";X c #BA978B",
":X c #AF918A",
">X c #B7A49B",
",X c #AAA097",
"<X c #C89987",
"1X c #D59D89",
"2X c #C99C92",
"3X c #D19D90",
"4X c #D9A789",
"5X c #C8A499",
"6X c #D5A493",
"7X c #E4AC97",
"8X c #C6A7A5",
"9X c #C5B2A8",
"0X c #D8B2A9",
"qX c #E3BCAB",
"wX c #EAC7B7",
"eX c #F4CCBB",
"rX c #FED3BA",
"tX c #DCC9C5",
"yX c #D4D5DA",
"uX c #EACCC3",
"iX c #EAD2C6",
"pX c #F4D1C4",
"aX c #F9D7C7",
"sX c #FADCD2",
"dX c #E9DDDD",
"fX c #FFE2DA",
"gX c #FFE1CF",
"hX c #D4E0EC",
"jX c #FEEDE7",
"kX c #FEF3EF",
"lX c #FEF0E7",
"zX c #FEF5F2",
"xX c #F5FDFE",
"cX c #FDFCFC",
"vX c #FDF8F6",
"bX c #EFF2F1",
/* pixels */
"                                                                                                    ",
"                                        w x M g q P L J                                             ",
"                                        M n b 7 h t t m                                             ",
"                                e z m f G.F.F.(.Q.T.!.r.N q n q                                     ",
"                                m v l b F.T.L.L.j.Y.Y.T.8 a p v                                     ",
"                            J m G.T.L.T.R.K.L.U.K.p.v.J.R.W.~.t.f I                                 ",
"                            q i t.R.J.p.J.K.a.d.U.u._.J.g.u.E.C.B q                                 ",
"                        e u F.Q.x.z.a.P.f.I.f.d.f.U.z.i.M.A.A.S.G.H.< @                             ",
"                        u 6 W.g._.n.n.f.n.n.U.n.U.a.M.J.k.A.A.C.S.<X@ #                             ",
"                    U v t.`.u.).n.s.n.n.n.n.f.f.U.U.M.k.E.Z.*.*.d l N n L U                         ",
"                    q b B.h.D.l.s.l.s.P.f.U.N.I.p.M.c.g.Z.Z.*.=.d d t N q w                         ",
"                    v 7 C.~.l.l.c.c.v.c.s.N.l.l.z.i.P.k.-.-.Z.C.h.C.!.r.,.>.c H                     ",
"                    M v Q.Y.A.A.C.B.V.Z.A.A.M.l.D.N.).k.X...g.E.`.B.Q.Q.+.0.x c                     ",
"                @ $ Y O.r.S.` ` p y d ` *.-.h.D.l.N.N.i.l.k.u.).g.W.[ @.1.U U w                     ",
"                X @ Y 7.G.S.&.' h g k k [ *.h.D.l.N.N.s.I.I.s.I.b.`.3.{ 8.,.r T                     ",
"                . @ 6.7.h k r.!.y.!.F.S.;.*.X..._.l.N.I.s.d.K.k.X.*.[ <.O.>.x c                     ",
"                @ X 6.7.5 d Q.j.Z.).x.x. . .....J.a.z.z.g.Z.R.j.=.4.{ ,.>.Y H c                     ",
"                X % E #.B p 2. .M.s.z.E.x.J.K.x.g.E.K.g.R.V. .4.@.O.u f q m lX                      ",
"                % X q.#.l | [  .W.g.E.V.W.Y.Y.W.K.K.j.R.V.C.@.[ %.@.g h m x vX                      ",
"                X X T ,.O.<.8 8 ` 8 =.[ @.@.{ 2.} } 2.2.9 8 a a d y 6X;X, @ zX                      ",
"                X @ E 9.+.<.9 p d s %.o.%.%.+.<.:.2.2.{ 9 v 7 s h y <X<X, , zX                      ",
"                  cX$ # >.+.:.<.%.o.o.k #.8.+.1.7 7 { <.G.4XG.H.S.7X3X2XP z jX                      ",
"                  vXX @ Q ,.O.:.$.%.k h #.7.#.#.v b { >.<X;XH.e.6X<X<X2XL I vX                      ",
"                    % % 6.>.O.1.@.8.#.%.%.%.k t 4XG.B 5 rXaX>X5XP k 3X2Xe I zX                      ",
"                    . X 6.6.B #.;.%.4.%.#.@.y v /.^.v 7 eXuX9X9XB B :X8XM I vX                      ",
"                        @ @ 0.1.%.;.o.;.j o.3X^.1X1Xb b eXwXjXsX# , sXqXY e                         ",
"                        X @ R Y @.;.4.%.k y 4X<XG.^.7 7 sXpXsXsX< , iXeXL W                         ",
"                        zXkX$ < #.o.%.o.y s <X4X7X4X4XF.rXwXaXsXeXwXiXgX:X>X                        ",
"                          kX$ @ #.7.#.0.n v <X^.F./././.rXaXqXaXaXeXiXiX>X                          ",
"                            zXzX@ @ # # T U B B 4X/././.(.4XrXeXwXiXc z                             ",
"                              vX1 . O . T H.v v 4X(.^.^.F.4XrXrXgXiXM T                             ",
"                                bXcXxXcX+ . % $ $ $ 4X/.B 7 N N M H kX                              ",
"                                      bXo = . O @ % >X8XW #.J W S S                                 ",
"                                      xX* & F Z Z S ^ ~ ^ ^ ; ; cX                                  ",
"                                      xX- 2 V G C D ].}.].].3 -                                     ",
"                                      hXD D .X$X#X|.C G  X X[.].& >                                 ",
"                                      xXF F +X.X.X+XG G @X|.|.[.- .                                 ",
"                                    = = 4 4 XXXX{.}.C G #X@X&XoX& o                                 ",
"                                    . > > c q.) =X*X4 F  XOXoX[.2 >                                 ",
"                                    X . H H X # uXtXdXyX* : oX%X* .                                 ",
"                                    . X w z < # aXgXiXyX. + XX%X* .                                 ",
"                                    o . ( 6.@ $ >XH.>X9X. : _ ! * .                                 ",
"                                    o & ) / % X >X9X:X,X+ . }.) . >                                 ",
"                                        o + -X*XX % . % =X*X- o cX                                  ",
"                                        o = ) =X% . @ X ( -XO ;                                     ",
"                                        O O ( Q 9.T Q 9.( ) ; o                                     ",
"                                        % @ E 6.#.7.7.Q 6.W O +                                     ",
"                                            # # # , @ # X O vX                                      ",
"                                            O X X . X . > +                                         ",
"                                                                                                    "
};
