/* XPM */
static char *player_back1669219048[] = {
/* columns rows colors chars-per-pixel */
"50 50 234 2 ",
"   c None",
".  c #050002",
"X  c #0B0101",
"o  c #02010C",
"O  c #0D0A0D",
"+  c #0A040A",
"@  c #140101",
"#  c #1B0302",
"$  c #18070A",
"%  c #020112",
"&  c #02031B",
"*  c #0A0716",
"=  c #161418",
"-  c #180B10",
";  c #220301",
":  c #2C0D09",
">  c #261314",
",  c #040826",
"<  c #0D1230",
"1  c #251F23",
"2  c #232837",
"3  c #622716",
"4  c #6F301A",
"5  c #562D26",
"6  c #593529",
"7  c #4D3936",
"8  c #5B3C32",
"9  c #563B38",
"0  c #4B3231",
"q  c #6B3C2C",
"w  c #673628",
"e  c #763728",
"r  c #653D35",
"t  c #753D34",
"y  c #5D433B",
"u  c #574135",
"i  c #5C412E",
"p  c #79402D",
"a  c #634332",
"s  c #65473B",
"d  c #72443B",
"f  c #75483B",
"g  c #29344C",
"h  c #243C68",
"j  c #583C44",
"k  c #4C3852",
"l  c #4B3C4F",
"z  c #643A45",
"x  c #394458",
"c  c #2A416A",
"v  c #294774",
"b  c #554341",
"n  c #5D4A44",
"m  c #5B4849",
"M  c #464854",
"N  c #56485A",
"B  c #43414C",
"V  c #654442",
"C  c #6C4B44",
"Z  c #624A48",
"A  c #6C544D",
"S  c #785649",
"D  c #695957",
"F  c #7C5857",
"G  c #6C4E4B",
"H  c #59596A",
"J  c #495A7B",
"K  c #555B7D",
"L  c #555979",
"P  c #474E69",
"I  c #665C65",
"U  c #765E64",
"Y  c #705A78",
"T  c #5A627B",
"R  c #7E686A",
"E  c #696575",
"W  c #766679",
"Q  c #71645C",
"!  c #82311C",
"~  c #823A29",
"^  c #9B543C",
"/  c #924C37",
"(  c #A6553A",
")  c #B7593B",
"_  c #A94E31",
"`  c #AF643A",
"'  c #C9663F",
"]  c #8A4D44",
"[  c #984F47",
"{  c #8C5B4B",
"}  c #885549",
"|  c #9B5544",
" . c #935B4B",
".. c #9A5C4A",
"X. c #985647",
"o. c #8C5D54",
"O. c #855C58",
"+. c #985A53",
"@. c #A35344",
"#. c #A35449",
"$. c #A45B4C",
"%. c #A65B49",
"&. c #A75B53",
"*. c #B05F4A",
"=. c #9C614B",
"-. c #95614B",
";. c #8B6153",
":. c #84635B",
">. c #8C645C",
",. c #826257",
"<. c #946153",
"1. c #986557",
"2. c #8D604D",
"3. c #AA634B",
"4. c #B66242",
"5. c #A36354",
"6. c #A3645A",
"7. c #A96758",
"8. c #B8735A",
"9. c #A96B58",
"0. c #886A66",
"q. c #946662",
"w. c #986861",
"e. c #967974",
"r. c #887572",
"t. c #A87666",
"y. c #BA7C68",
"u. c #BC7E72",
"i. c #A46F61",
"p. c #D26E4C",
"a. c #CA794A",
"s. c #DA744B",
"d. c #DE794D",
"f. c #D4764B",
"g. c #CC7C53",
"h. c #CB7B5E",
"j. c #C67558",
"k. c #D37554",
"l. c #DD7654",
"z. c #D57B54",
"x. c #DC7A54",
"c. c #D47C5B",
"v. c #DB7B5A",
"b. c #DD7759",
"n. c #CE6D4A",
"m. c #E1774E",
"M. c #E27A4E",
"N. c #E47654",
"B. c #E27A53",
"V. c #E37C5A",
"C. c #E57659",
"Z. c #CD7C64",
"A. c #C57C67",
"S. c #D87F64",
"D. c #E67D60",
"F. c #BB816A",
"G. c #A68779",
"H. c #B4877A",
"J. c #93827B",
"K. c #D48353",
"L. c #DC8254",
"P. c #D4815C",
"I. c #DC825E",
"U. c #D68858",
"Y. c #D48256",
"T. c #E4835C",
"R. c #E8815E",
"E. c #CD836B",
"W. c #C78267",
"Q. c #D48464",
"!. c #DD8363",
"~. c #D7866B",
"^. c #C98976",
"/. c #D58875",
"(. c #E38463",
"). c #E88766",
"_. c #EC8E6C",
"`. c #3A5A8F",
"'. c #455B87",
"]. c #595F87",
"[. c #495F91",
"{. c #596589",
"}. c #4A6797",
"|. c #596B95",
" X c #546C93",
".X c #65698A",
"XX c #746787",
"oX c #666D93",
"OX c #687698",
"+X c #767696",
"@X c #79708F",
"#X c #4869A1",
"$X c #5E7FA2",
"%X c #6A7DA9",
"&X c #86738F",
"*X c #7D8398",
"=X c #5984BA",
"-X c #7686A8",
";X c #638ABA",
":X c #7485B3",
">X c #6D92BC",
",X c #6D8BB2",
"<X c #388ED1",
"1X c #488DCE",
"2X c #5892CC",
"3X c #4897D8",
"4X c #5A96D5",
"5X c #4D8FCA",
"6X c #6497D4",
"7X c #6491CA",
"8X c #4EA3E5",
"9X c #78A5CF",
"0X c #B68983",
"qX c #B9958A",
"wX c #A89190",
"eX c #8888A6",
"rX c #8B90B0",
"tX c #AFA8A7",
"yX c #908291",
"uX c #CE9587",
"iX c #C3B4B7",
"pX c #E0C8BD",
"aX c #B7BAC1",
"sX c #C6BFC7",
"dX c #DBC8C1",
"fX c #ECD1C7",
"gX c #F2D5CC",
"hX c #FDE2D9",
"jX c #FDEAE1",
"kX c #FCE9E5",
"lX c #FFF6ED",
"zX c #FFF3F2",
"xX c #FEFBFD",
"cX c #FCF8F8",
/* pixels */
"                                        cXjXlXlXlXjXzXlXlX                                          ",
"                                      xXZ u i a 6 r C s V n                                         ",
"                                    cXjXs 5 d w q r q 6 r 8 hX                                      ",
"                                Z 0 f a 2.{ ^.^.8.W.u.F.t.;.f s n m                                 ",
"                                a i 4 4 -.3.8.Q.~.~.y.8.^ =.3 a i 0                                 ",
"                            m u -.=.F.F.W.U.P.v.h.k.c._.W.E.E.y.1.S s u                             ",
"                            V 5 3.^ U.Q.U.z.L.f.T.l.v.k.k.j.!.h.9.i.6 6                             ",
"                        s C O.<.W.K.U.U.a.T.f.T.d.V.V.p.).!.j.~.W.9.9.S a A                         ",
"                        d w O.6.W.z.P.x.x.B.M.B.m.m.N.x.x.v.v.S.S.~...-.q f                         ",
"            n n 6 8 d f +.X.u.A.c.z.z.x.x.B.M.m.B.N.B.N.l.x.b.v.D.Z.h.E./ } t 5 V V Z 0             ",
"            y 7 s q e 3 &.| E.~.c.x.x.x.x.B.N.B.B.B.B.B.x.l.l.v.b.k.S.!.3.9.e w z r r j             ",
"        $ @ G.uXH.F./.E.*._ ( _ c.v.I.x.B.B.B.B.M.m.m.N.B.x.V.V.C.V.) _ ^ ^ W.^.u.^.0X  @ X         ",
"        # ; qXt.^.A.A.S._ 4.) ) v.l.x.l.B.d.B.m.d.m.d.d.x.B.B.B.B.D._ _ ) ( E.W.^.u.u.wX; $         ",
"        X # o.+.y.A.Z.!.c.(.p.x.l.v.x.x.x.B.x.m.B.M.m.M.m.d.d.x.l.V.p.).z.(.j.h.E.A.i.O.# -         ",
"        @ : o.5./.Z.).k.k.l.x.R.V.V.V.v.B.B.T.M.M.L.M.M.d.d.d.m.l.x.T._.f.).a.Q.h.W.] ;.# X         ",
"            w 3 ~ 4 j.(.k.l.T.' l.b.l.l.x.m.m.m.m.m.M.M.m.B.B.B.B.s.l.f.x.P.I.P.e e t 6             ",
"            8 s 4 p Z.z.!.(.s.D.D.D.b.b.z.x.L.B.C.C.N.N.C.B.v.V.B.M.s._.s.(.S.A.e e 5 j             ",
"            # ; <.-.e ~ j.c.v.x.b.b.v.v.d.K.z.x.d.N.N.N.C.C.v.c.d.B.m.x.S.D.! ~ &.O.: @             ",
"            @ @ ,.;.w e A.Z.~.c.z.d.L.L.K.K.L.L.m.M.T.M.B.L.z.K.T.v.S.S.j.Z.~ e +.O.@ @             ",
"            @ @ 0.:.;.] 5.%.( ( I.L.z.g.a.K.a.f.d.f.m.s.d.f.K.z.c.Z.( *.#.&.+.] >.O.# +             ",
"            1 X r.D e.q.o.[ ../ ~.U.z.g.K.U.K.K.K.L.x.L.L.L.K.K.A.uX^ ] 6.o.{ 0.F 0.# .             ",
"                O $ 9 z w q 6.X.( ( ( 4.8.Y.P.k.z.z.x.c.Y.8.` ^ @.6.&.] f r 5 s > X                 ",
"                . X 9 z 6 e ..%.$.| #.3.h.E.S.Z.S.S.!.Q.c.8.` ^ [ ] 6.+.t r Z y X .                 ",
"                + + 0.q.;.-.4 e &...[ [ | $.#.@.@.( ( @.%.%.$.| 6.&.e d O.F 0.D X .                 ",
"                O @ R ,.{ / p e +.+.6.7.#.#.&.#.@.@.@.#.#.$.| | &.| e d { ,.e.Q . O                 ",
"                    # # i.1...5.+.6.[ [ &.#.#.@.&.&.$.$.$.$.$.$.| X...+.} :.X $                     ",
"                    @ ; S {  . .[ i.+.$.&.#.&.*.@.^ ^ ^ | ..X.| 9.| -.} >.S # .                     ",
"                    kXlXs f 1.{ o.o.1.| [ #.| | @.....=.=.=...X. .} 1.;.y u                         ",
"                      cX7 j F :.q.S 1.2.[ 6.X.[ =...-.{ 2.{  .2.o.>.>.0.y 9                         ",
"                      xXcXzX$ X u 8 ;.1.+.6.] X.<.<.;.{ 2.;.1.w.C 9 @ @ zX                          ",
"                      xXcXxX% o b A A O.q.+.+.6.q.>.q.0.0.q.O.F b N X X xX                          ",
"                      cX% , 2 P H I $ # j z z z z j j k z 0 > + I E 2 B o O                         ",
"                    xXcX, < h v J H & * k k k k k N k N N k * , E P g M % =                         ",
"                    X o *X:X}.[.].oXL ].oX].oX]..X].T ].].].P P ]..X.XL aXtX. .                     ",
"                  jX@ - W rX X|..X].oX X}.`.}.`.#X`.[.}.[.oX|.oXK T H I tXtX@ X                     ",
"                u y G.wXR E eX+X, , '.'.%X2X6X2X4X2X6X6X=X=X[.'., % dXwXr.J.dX  n Q                 ",
"                i s G.G.0.U &XrX& , OX X7X=X1X3X<X3X1X1X7X7X#X[., X tXtXe.J.pXfXA b                 ",
"                u a G.qXe.wX9 m * , ].`.;X2X1X8X<X8X3X5X6X7X[.[.o + u D pXfXgXfXV 7                 ",
"                s i G.H.qXwXG m # - H J >X4X3X8X<X3X3X5X=X%X].XX* . D 7 jXfXfX  V R                 ",
"                    8 8 V 0 @ $ b B *XT  X#X=X4X4X4X2X7X[.oXoXoXM N . $ y 7 A y                     ",
"                    D u y D . O H x J  XT  X%X%X:X%X:X%X{. X{..Xx x O + D D Z Z                     ",
"                            = o *X=X,XrX.XT +X@XXXXX@X.XOX X,X>X-X*Xo o                             ",
"                            o & >X9X,X%X+XXXI &XY XXW oX{. X7X>X*XrX& *                             ",
"                            O % , , '.J *XeX&X&XXXY -XeX*X,XJ J , % % %                             ",
"                            . O O + W H eXeX>X:X[.'.rX-X*XrXm E O % = %                             ",
"                            . = A :.U I , , h v v c h g % . R R E r.X .                             ",
"                            - @     0.e.o o x g g x 2 M = = R R R R $ >                             ",
"                                @ ; @ @                     + X @ #                                 ",
"                                X - X .                     = . . -                                 ",
"                                                                                                    "
};
